<svg height="512" viewBox="0 0 60 60" width="512" xmlns="http://www.w3.org/2000/svg"><g id="Page-1" fill="none" fill-rule="evenodd"><g id="027---Server-Files" fill="rgb(0,0,0)" fill-rule="nonzero"><circle id="Oval" cx="5" cy="25" r="1"/><circle id="Oval" cx="5" cy="33" r="1"/><circle id="Oval" cx="5" cy="41" r="1"/><path id="Shape" d="m57 4h-8c-.5522847 0-1-.44771525-1-1 0-1.65685425-1.3431458-3-3-3h-6c-1.6568542 0-3 1.34314575-3 3v7h-3c-1.6568542 0-3 1.3431458-3 3v16h-4v-11c-.0062484-.0627291-.0186412-.124693-.037-.185.0184163-.1041959.0307704-.2093727.037-.315 0-3.572-6.7-5.5-13-5.5s-13 1.928-13 5.5c.00622964.1056273.01858374.2108041.037.315-.0183588.060307-.03075159.1222709-.037.185v24c0 3.283 6.54 5 13 5s13-1.717 13-5v-11h4v16c0 1.6568542 1.3431458 3 3 3h3v7c0 1.6568542 1.3431458 3 3 3h18c1.6568542 0 3-1.3431458 3-3v-8c0-1.6568542-1.3431458-3-3-3h-8c-.5522847 0-1-.4477153-1-1 0-1.6568542-1.3431458-3-3-3h-6c-1.6568542 0-3 1.3431458-3 3v3h-3c-.5522847 0-1-.4477153-1-1v-16h4v5c0 1.6568542 1.3431458 3 3 3h18c1.6568542 0 3-1.3431458 3-3v-8c0-1.6568542-1.3431458-3-3-3h-8c-.5522847 0-1-.4477153-1-1 0-1.6568542-1.3431458-3-3-3h-6c-1.6568542 0-3 1.3431458-3 3v5h-4v-16c0-.5522847.4477153-1 1-1h3v3c0 1.6568542 1.3431458 3 3 3h18c1.6568542 0 3-1.3431458 3-3v-8c0-1.65685425-1.3431458-3-3-3zm-33 22c0 1.018-3.883 3-11 3s-11-1.982-11-3v-5.479c2.455 1.622 6.809 2.479 11 2.479s8.545-.857 11-2.479zm-22 2.783c2.426 1.46 6.725 2.217 11 2.217s8.574-.757 11-2.217v5.217c0 1.018-3.883 3-11 3s-11-1.982-11-3zm11-14.783c6.715 0 11 2.073 11 3.5s-4.285 3.5-11 3.5-11-2.073-11-3.5 4.285-3.5 11-3.5zm0 31c-7.117 0-11-1.982-11-3v-5.217c2.426 1.46 6.725 2.217 11 2.217s8.574-.757 11-2.217v5.217c0 1.018-3.883 3-11 3zm25 0c0-.5522847.4477153-1 1-1h6c.5522847 0 1 .4477153 1 1 0 1.6568542 1.3431458 3 3 3h8c.5522847 0 1 .4477153 1 1v8c0 .5522847-.4477153 1-1 1h-18c-.5522847 0-1-.4477153-1-1zm0-21c0-.5522847.4477153-1 1-1h6c.5522847 0 1 .4477153 1 1 0 1.6568542 1.3431458 3 3 3h8c.5522847 0 1 .4477153 1 1v8c0 .5522847-.4477153 1-1 1h-18c-.5522847 0-1-.4477153-1-1zm20-9c0 .5522847-.4477153 1-1 1h-18c-.5522847 0-1-.4477153-1-1v-12c0-.55228475.4477153-1 1-1h6c.5522847 0 1 .44771525 1 1 0 1.65685425 1.3431458 3 3 3h8c.5522847 0 1 .44771525 1 1z"/><circle id="Oval" cx="41" cy="13" r="1"/><circle id="Oval" cx="41" cy="9" r="1"/><circle id="Oval" cx="41" cy="34" r="1"/><circle id="Oval" cx="41" cy="30" r="1"/><circle id="Oval" cx="41" cy="55" r="1"/><circle id="Oval" cx="41" cy="51" r="1"/></g></g></svg>