<svg width="50" height="50" viewBox="0 0 50 50" fill="none" xmlns="http://www.w3.org/2000/svg">
<path d="M9.30302 45.3753C4.06017 44.733 0 40.2649 0 34.8485C0 28.9909 4.7485 24.2424 10.6061 24.2424H11.3636C11.782 24.2424 12.1212 24.5816 12.1212 25C12.1212 25.4184 11.782 25.7576 11.3636 25.7576H10.6061C5.58529 25.7576 1.51515 29.8277 1.51515 34.8485C1.51515 39.6704 5.26931 43.6155 10.0142 43.9204L8.44129 41.2989C8.22603 40.9401 8.34237 40.4747 8.70114 40.2594C9.05991 40.0442 9.52527 40.1605 9.74053 40.5193L12.0133 44.3072C12.2083 44.6323 12.133 45.0517 11.8369 45.2885L8.04901 48.3189C7.7223 48.5802 7.24556 48.5273 6.98419 48.2006C6.72282 47.8739 6.77579 47.3971 7.1025 47.1357L9.30302 45.3753ZM40.697 25.6783L42.8975 27.4387C43.2242 27.7001 43.2772 28.1769 43.0158 28.5036C42.7544 28.8303 42.2777 28.8833 41.951 28.6219L38.1631 25.5916C37.867 25.3547 37.7917 24.9354 37.9867 24.6102L40.2595 20.8223C40.4747 20.4636 40.9401 20.3472 41.2989 20.5625C41.6576 20.7777 41.774 21.2431 41.5587 21.6019L39.9858 24.2235C44.7307 23.9186 48.4848 19.9735 48.4848 15.1515C48.4848 10.1307 44.4147 6.06061 39.3939 6.06061H38.6364C38.218 6.06061 37.8788 5.72142 37.8788 5.30303C37.8788 4.88464 38.218 4.54545 38.6364 4.54545H39.3939C45.2515 4.54545 50 9.29395 50 15.1515C50 20.5679 45.9398 25.036 40.697 25.6783ZM19.697 0H30.303C32.395 0 34.0909 1.69589 34.0909 3.78788V6.81818C34.0909 8.91017 32.395 10.6061 30.303 10.6061H19.697C17.605 10.6061 15.9091 8.91017 15.9091 6.81818V3.78788C15.9091 1.69589 17.605 0 19.697 0ZM19.697 1.51515C18.4418 1.51515 17.4242 2.53269 17.4242 3.78788V6.81818C17.4242 8.07337 18.4418 9.09091 19.697 9.09091H30.303C31.5582 9.09091 32.5758 8.07337 32.5758 6.81818V3.78788C32.5758 2.53269 31.5582 1.51515 30.303 1.51515H19.697ZM19.697 39.3939H30.303C32.395 39.3939 34.0909 41.0898 34.0909 43.1818V46.2121C34.0909 48.3041 32.395 50 30.303 50H19.697C17.605 50 15.9091 48.3041 15.9091 46.2121V43.1818C15.9091 41.0898 17.605 39.3939 19.697 39.3939ZM19.697 40.9091C18.4418 40.9091 17.4242 41.9266 17.4242 43.1818V46.2121C17.4242 47.4673 18.4418 48.4848 19.697 48.4848H30.303C31.5582 48.4848 32.5758 47.4673 32.5758 46.2121V43.1818C32.5758 41.9266 31.5582 40.9091 30.303 40.9091H19.697ZM19.697 19.697H30.303C32.395 19.697 34.0909 21.3929 34.0909 23.4848V26.5152C34.0909 28.6071 32.395 30.303 30.303 30.303H19.697C17.605 30.303 15.9091 28.6071 15.9091 26.5152V23.4848C15.9091 21.3929 17.605 19.697 19.697 19.697ZM19.697 21.2121C18.4418 21.2121 17.4242 22.2297 17.4242 23.4848V26.5152C17.4242 27.7703 18.4418 28.7879 19.697 28.7879H30.303C31.5582 28.7879 32.5758 27.7703 32.5758 26.5152V23.4848C32.5758 22.2297 31.5582 21.2121 30.303 21.2121H19.697Z" fill="#F1841F"/>
</svg>
