<svg width="50" height="50" viewBox="0 0 50 50" fill="none" xmlns="http://www.w3.org/2000/svg">
<path d="M11.6666 25C11.6666 32.3516 17.6483 38.3333 25 38.3333C32.3517 38.3333 38.3333 32.3516 38.3333 25C38.3333 17.6483 32.3517 11.6666 25 11.6666C17.6483 11.6666 11.6666 17.6483 11.6666 25ZM18.7375 15.1725L20.0875 17.8725C20.1683 18.0333 20.2991 18.165 20.46 18.245L22.9883 19.5091L21.195 22.5H18.3333C17.9741 22.5 17.6566 22.7291 17.5425 23.07L16.8991 25H13.3333C13.3333 20.8725 15.4941 17.2466 18.7375 15.1725ZM25 34.1666V36.6666C20.9116 36.6666 17.3141 34.5491 15.2308 31.3575L19.0166 30.0958L22 32.3333C22.3041 32.5608 22.7241 32.555 23.0208 32.3175L26.605 29.45L28.3333 31.1783V32.6825L25.6308 33.3583C25.26 33.4508 25 33.7841 25 34.1666ZM36.6667 25C36.6667 26.8383 36.2275 28.5725 35.4667 30.1216L33.5725 28.2275L34.86 26.2958C34.99 26.1008 35.0325 25.8591 34.975 25.6316L34.1417 22.2983C34.0858 22.0733 33.9375 21.8816 33.7342 21.77C33.53 21.6575 33.2892 21.6366 33.0692 21.71L31.1392 22.3533L29.2375 19.8183L29.8175 17.5H33.9242C35.6325 19.53 36.6667 22.145 36.6667 25ZM29.1666 15.8333C28.7841 15.8333 28.4508 16.0933 28.3583 16.4641L27.525 19.7975C27.4641 20.0408 27.5166 20.2991 27.6666 20.5L30.1666 23.8333C30.3816 24.12 30.7567 24.2375 31.0967 24.1241L32.7433 23.575L33.2683 25.6775L31.8067 27.8708C31.5858 28.2008 31.63 28.6416 31.9108 28.9225L34.6008 31.6125C32.7942 34.2266 29.9491 36.0608 26.6666 36.5333V34.8166L29.3691 34.1408C29.74 34.0491 30 33.7158 30 33.3333V30.8333C30 30.6125 29.9125 30.4 29.7558 30.2441L27.2558 27.7441C26.9558 27.4433 26.4775 27.4166 26.1458 27.6825L22.4833 30.6125L19.6666 28.5C19.4483 28.335 19.1633 28.29 18.9025 28.3758L14.4133 29.8725C13.9508 28.8716 13.6291 27.7958 13.4658 26.6666H17.5C17.8591 26.6666 18.1766 26.4375 18.2908 26.0966L18.9341 24.1666H21.6666C21.9591 24.1666 22.2308 24.0133 22.3808 23.7625L24.8808 19.5958C25.0008 19.3966 25.0316 19.1566 24.9666 18.9341C24.9016 18.7116 24.7466 18.5258 24.5391 18.4216L21.4541 16.8791L20.2033 14.3766C21.6683 13.7125 23.2891 13.3333 25 13.3333C27.7141 13.3333 30.2091 14.2733 32.1933 15.8333H29.1666Z" fill="#F1841F"/>
<path d="M47.5 22.5C46.415 22.5 45.4983 23.1992 45.1533 24.1667H40V25.8333H45.1533C45.4983 26.8008 46.415 27.5 47.5 27.5C48.8783 27.5 50 26.3783 50 25C50 23.6217 48.8783 22.5 47.5 22.5ZM47.5 25.8333C47.0408 25.8333 46.6667 25.4592 46.6667 25C46.6667 24.5408 47.0408 24.1667 47.5 24.1667C47.9592 24.1667 48.3333 24.5408 48.3333 25C48.3333 25.4592 47.9592 25.8333 47.5 25.8333Z" fill="#F1841F"/>
<path d="M47.5 39.1667C47.5 37.7884 46.3783 36.6667 45 36.6667C43.915 36.6667 42.9983 37.3659 42.6533 38.3334H41.3975L39.94 34.6901C39.8133 34.3742 39.5075 34.1667 39.1666 34.1667H36.6666V35.8334H38.6025L40.06 39.4767C40.1866 39.7926 40.4925 40.0001 40.8333 40.0001H42.6533C42.9983 40.9676 43.915 41.6667 45 41.6667C46.3783 41.6667 47.5 40.5451 47.5 39.1667ZM44.1666 39.1667C44.1666 38.7076 44.5408 38.3334 45 38.3334C45.4591 38.3334 45.8333 38.7076 45.8333 39.1667C45.8333 39.6259 45.4591 40.0001 45 40.0001C44.5408 40.0001 44.1666 39.6259 44.1666 39.1667Z" fill="#F1841F"/>
<path d="M38.3333 49.1667C39.7117 49.1667 40.8333 48.045 40.8333 46.6667C40.8333 45.2883 39.7117 44.1667 38.3333 44.1667C37.2483 44.1667 36.3317 44.8658 35.9867 45.8333H33.9617L32.4675 40.6042C32.3658 40.2467 32.0383 40 31.6667 40H27.5V41.6667H31.0383L32.5325 46.8958C32.6342 47.2533 32.9617 47.5 33.3333 47.5H35.9867C36.3317 48.4675 37.2483 49.1667 38.3333 49.1667ZM38.3333 45.8333C38.7925 45.8333 39.1667 46.2075 39.1667 46.6667C39.1667 47.1258 38.7925 47.5 38.3333 47.5C37.8742 47.5 37.5 47.1258 37.5 46.6667C37.5 46.2075 37.8742 45.8333 38.3333 45.8333Z" fill="#F1841F"/>
<path d="M31.5792 9.53915L33.8483 4.99998H35.9767C36.3275 5.99165 37.2742 6.66665 38.3325 6.66665C38.4567 6.66665 38.5825 6.65748 38.7092 6.63831C39.3692 6.53748 39.9508 6.18665 40.3467 5.64831C40.7425 5.10998 40.905 4.44998 40.805 3.79081C40.5975 2.42831 39.3225 1.49165 37.9575 1.69415C37.2975 1.79498 36.7158 2.14581 36.32 2.68415C36.1725 2.88498 36.0692 3.10581 35.9875 3.33331H33.3333C33.0175 3.33331 32.7292 3.51165 32.5875 3.79415L30.3183 8.33331H27.5V9.99998H30.8333C31.1492 9.99998 31.4375 9.82165 31.5792 9.53915ZM37.6617 3.67248C37.7942 3.49331 37.9875 3.37581 38.2075 3.34248C38.25 3.33581 38.2917 3.33331 38.3333 3.33331C38.7383 3.33331 39.095 3.62915 39.1575 4.04165C39.1908 4.26165 39.1367 4.48165 39.005 4.66081C38.8725 4.83998 38.6792 4.95748 38.4592 4.99081C38.0108 5.06165 37.5792 4.74665 37.51 4.29165C37.4758 4.07165 37.53 3.85165 37.6617 3.67248Z" fill="#F1841F"/>
<path d="M43.4867 12.5C43.8317 13.4675 44.7484 14.1666 45.8334 14.1666C47.2117 14.1666 48.3334 13.045 48.3334 11.6666C48.3334 10.2883 47.2117 9.16663 45.8334 9.16663C44.7484 9.16663 43.8317 9.86579 43.4867 10.8333H40C39.7217 10.8333 39.4617 10.9725 39.3067 11.2041L37.8875 13.3333H35.8334V15H38.3334C38.6117 15 38.8717 14.8608 39.0267 14.6291L40.4459 12.5H43.4867ZM45.8334 10.8333C46.2926 10.8333 46.6667 11.2075 46.6667 11.6666C46.6667 12.1258 46.2926 12.5 45.8334 12.5C45.3742 12.5 45.0001 12.1258 45.0001 11.6666C45.0001 11.2075 45.3742 10.8333 45.8334 10.8333Z" fill="#F1841F"/>
<path d="M0.833334 20.8333C0.373334 20.8333 0 21.2067 0 21.6667V28.3333C0 28.7933 0.373334 29.1667 0.833334 29.1667H2.88667C3.095 30.2733 3.39 31.3717 3.76834 32.4475L1.9875 33.475C1.58834 33.705 1.4525 34.215 1.6825 34.6133L5.01584 40.3867C5.24584 40.785 5.75334 40.9217 6.15417 40.6917L7.93834 39.6617C8.67668 40.5192 9.48001 41.3233 10.3375 42.0608L9.30751 43.845C9.07751 44.2442 9.21418 44.7533 9.61251 44.9833L15.3859 48.3167C15.7834 48.5458 16.2934 48.4092 16.5242 48.0117L17.5517 46.2308C18.6267 46.6092 19.725 46.9042 20.8325 47.1125V49.1667C20.8325 49.6267 21.2059 50 21.6659 50H24.9992C25.4592 50 25.8325 49.6267 25.8325 49.1667V40.8333C25.8325 40.3733 25.4592 40 24.9992 40C16.7284 40 9.99918 33.2708 9.99918 25C9.99918 16.7292 16.7284 10 24.9992 10C25.4592 10 25.8325 9.62667 25.8325 9.16667V0.833333C25.8325 0.373333 25.4592 0 24.9992 0H21.6659C21.2059 0 20.8325 0.373333 20.8325 0.833333V2.88667C19.7259 3.095 18.6275 3.39 17.5517 3.76833L16.525 1.9875C16.2942 1.58833 15.7842 1.45167 15.3867 1.6825L9.61335 5.01583C9.21418 5.24583 9.07834 5.75583 9.30834 6.15417L10.3383 7.93833C9.48084 8.67667 8.67668 9.48 7.93918 10.3375L6.15417 9.30833C5.75334 9.07833 5.24584 9.215 5.01584 9.61333L1.6825 15.3867C1.4525 15.785 1.58917 16.295 1.9875 16.525L3.76834 17.5525C3.39 18.6283 3.095 19.7267 2.88667 20.8333H0.833334ZM4.41251 21.7942C4.63834 20.3358 5.02751 18.885 5.57084 17.4842C5.71917 17.1008 5.56667 16.6667 5.21001 16.4608L3.54334 15.4983L6.04334 11.1683L7.71334 12.1325C8.06918 12.3375 8.52084 12.2525 8.77834 11.9342C9.71335 10.775 10.775 9.71333 11.9342 8.77833C12.2533 8.52083 12.3375 8.06833 12.1325 7.71333L11.1683 6.04333L15.4984 3.54333L16.4609 5.21C16.6667 5.56583 17.1 5.7175 17.4834 5.57083C18.885 5.0275 20.335 4.63833 21.7934 4.4125C22.2 4.35 22.5 4 22.5 3.58917V1.66667H24.1667V8.35417C15.3625 8.78917 8.33334 16.0892 8.33334 25C8.33334 33.9108 15.3625 41.2108 24.1667 41.6458V48.3333H22.5V46.4108C22.5 46 22.2 45.65 21.7942 45.5875C20.3359 45.3617 18.885 44.9725 17.4842 44.4292C17.1009 44.2817 16.6675 44.4333 16.4609 44.79L15.4984 46.4567L11.1683 43.9567L12.1325 42.2867C12.3375 41.9308 12.2533 41.4792 11.9342 41.2217C10.775 40.2867 9.71335 39.225 8.77834 38.0658C8.52001 37.7458 8.06834 37.6617 7.71334 37.8675L6.04334 38.8317L3.54334 34.5017L5.21001 33.5392C5.56584 33.3333 5.71917 32.8992 5.57084 32.5167C5.02751 31.115 4.63834 29.665 4.41251 28.2067C4.35001 27.8 4 27.5 3.58917 27.5H1.66667V22.5H3.58917C4 22.5 4.35001 22.2 4.41251 21.7942Z" fill="#F1841F"/>
</svg>
