<svg width="50" height="50" viewBox="0 0 50 50" fill="none" xmlns="http://www.w3.org/2000/svg">
<path d="M0.833333 50H19.1667C19.6267 50 20 49.6275 20 49.1667V45.8334C20 42.1842 17.3792 39.1392 13.9217 38.4725C15.0925 37.405 15.8333 35.8725 15.8333 34.1667C15.8333 30.9509 13.2167 28.3334 10 28.3334C6.78333 28.3334 4.16667 30.9509 4.16667 34.1667C4.16667 35.8725 4.9075 37.405 6.07833 38.4725C2.62083 39.1392 0 42.1842 0 45.8334V49.1667C0 49.6275 0.373333 50 0.833333 50ZM5.83333 34.1667C5.83333 31.8692 7.7025 30 10 30C12.2975 30 14.1667 31.8692 14.1667 34.1667C14.1667 36.4642 12.2975 38.3334 10 38.3334C7.7025 38.3334 5.83333 36.4642 5.83333 34.1667ZM1.66667 45.8334C1.66667 42.6175 4.28333 40 7.5 40H12.5C15.7167 40 18.3333 42.6175 18.3333 45.8334V48.3334H1.66667V45.8334Z" fill="#F1841F"/>
<path d="M45.8333 0H15.8333C13.5358 0 11.6666 1.86917 11.6666 4.16667V22.5C11.6666 24.7975 13.5358 26.6667 15.8333 26.6667H28.3333V30.0867L25.2783 30.4258C22.6766 30.7158 20.425 32.2858 19.2541 34.6267C19.125 34.885 19.1391 35.1917 19.2908 35.4375C19.4425 35.6833 19.7108 35.8333 20 35.8333H41.6666C41.9558 35.8333 42.2233 35.6833 42.3758 35.4375C42.5283 35.1917 42.5416 34.885 42.4125 34.6267C41.2425 32.2858 38.99 30.7158 36.3883 30.4258L33.3333 30.0867V26.6667H45.8333C48.1308 26.6667 50 24.7975 50 22.5V4.16667C50 1.86917 48.1308 0 45.8333 0ZM15.8333 1.66667H45.8333C47.2116 1.66667 48.3333 2.78833 48.3333 4.16667V21.6667H13.3333V4.16667C13.3333 2.78833 14.455 1.66667 15.8333 1.66667ZM36.2033 32.0833C37.7533 32.2558 39.1458 33.0083 40.1266 34.1667H21.54C22.5208 33.0083 23.9125 32.2558 25.4625 32.0833L29.2141 31.6667H32.4516L36.2033 32.0833ZM31.6666 30H30V26.6667H31.6666V30ZM45.8333 25H32.5H29.1666H15.8333C14.7483 25 13.8316 24.3008 13.4866 23.3333H48.1791C47.835 24.3008 46.9183 25 45.8333 25Z" fill="#F1841F"/>
<path d="M24.5375 6.5266L27.0375 8.19327L27.9616 6.8066L26.5025 5.83327L27.9625 4.85993L27.0383 3.47327L24.5383 5.13993C24.3058 5.29493 24.1666 5.55493 24.1666 5.83327C24.1666 6.1116 24.3058 6.3716 24.5375 6.5266Z" fill="#F1841F"/>
<path d="M31.8488 3.64584L28.5144 7.81152L29.8156 8.85302L33.1499 4.68734L31.8488 3.64584Z" fill="#F1841F"/>
<path d="M34.6291 8.19327L37.1291 6.5266C37.3608 6.3716 37.4999 6.1116 37.4999 5.83327C37.4999 5.55493 37.3608 5.29493 37.1291 5.13993L34.6291 3.47327L33.7049 4.85993L35.1641 5.83327L33.7041 6.8066L34.6291 8.19327Z" fill="#F1841F"/>
<path d="M27.5 17.5H25.8334V12.5H24.1667V17.5H22.5V10.8334H20.8334V17.5H19.1667V13.3334H17.5V17.5H15.8334V19.1667H27.5V17.5Z" fill="#F1841F"/>
<path d="M32.3808 18.7625L34.4833 15.2575L37.1266 16.5791C37.4733 16.7516 37.8916 16.6641 38.1391 16.3675L41.7725 12.0075L46.1325 15.6408L47.1991 14.36L42.1991 10.1933C41.845 9.89914 41.32 9.94581 41.0258 10.3L37.2816 14.7933L34.5383 13.4216C34.15 13.2283 33.675 13.365 33.4508 13.7383L30.9508 17.905L32.3808 18.7625Z" fill="#F1841F"/>
<path d="M23.3333 45H21.6666V46.6667H23.3333V45Z" fill="#F1841F"/>
<path d="M26.6667 45H25V46.6667H26.6667V45Z" fill="#F1841F"/>
<path d="M29.9999 45H28.3333V46.6667H29.9999V45Z" fill="#F1841F"/>
<path d="M33.3333 45H31.6666V46.6667H33.3333V45Z" fill="#F1841F"/>
<path d="M46.6667 41.6666H45V43.3333H46.6667V41.6666Z" fill="#F1841F"/>
<path d="M46.6667 35H45V36.6667H46.6667V35Z" fill="#F1841F"/>
<path d="M46.6667 31.6667H45V33.3334H46.6667V31.6667Z" fill="#F1841F"/>
<path d="M46.6667 38.3334H45V40H46.6667V38.3334Z" fill="#F1841F"/>
<path d="M9.16667 12.5H7.5V14.1667H9.16667V12.5Z" fill="#F1841F"/>
<path d="M5.83329 12.5H4.16663V14.1667H5.83329V12.5Z" fill="#F1841F"/>
<path d="M2.49992 12.5H0.833252V14.1667H2.49992V12.5Z" fill="#F1841F"/>
<path d="M2.49992 15.8334H0.833252V17.5H2.49992V15.8334Z" fill="#F1841F"/>
<path d="M2.49992 19.1666H0.833252V20.8333H2.49992V19.1666Z" fill="#F1841F"/>
<path d="M2.49992 22.5H0.833252V24.1667H2.49992V22.5Z" fill="#F1841F"/>
<path d="M2.49992 25.8334H0.833252V27.5H2.49992V25.8334Z" fill="#F1841F"/>
<path d="M2.49992 29.1666H0.833252V30.8333H2.49992V29.1666Z" fill="#F1841F"/>
<path d="M2.49992 32.5H0.833252V34.1667H2.49992V32.5Z" fill="#F1841F"/>
<path d="M36.6667 45H35V46.6667H36.6667V45Z" fill="#F1841F"/>
<path d="M39.9999 45H38.3333V46.6667H39.9999V45Z" fill="#F1841F"/>
<path d="M43.3333 45H41.6666V46.6667H43.3333V45Z" fill="#F1841F"/>
<path d="M46.6667 45H45V46.6667H46.6667V45Z" fill="#F1841F"/>
<path d="M46.6667 28.3334H45V30H46.6667V28.3334Z" fill="#F1841F"/>
</svg>
