<svg width="50" height="50" viewBox="0 0 50 50" fill="none" xmlns="http://www.w3.org/2000/svg">
<path d="M7.52321 32.9123C7.34634 32.909 7.17241 32.8682 7.0139 32.7927C6.74733 32.6624 6.54531 32.4361 6.452 32.1631C6.35868 31.8902 6.38166 31.5929 6.5159 31.3362L8.04384 28.347C9.08746 26.3245 10.7019 24.6243 12.7031 23.4404C14.7043 22.2565 17.0116 21.6366 19.3619 21.6513C19.6621 21.6513 19.95 21.7658 20.1622 21.9696C20.3745 22.1735 20.4937 22.4499 20.4937 22.7382C20.4937 23.0265 20.3745 23.303 20.1622 23.5068C19.95 23.7107 19.6621 23.8252 19.3619 23.8252C17.4469 23.8159 15.5671 24.3196 13.9337 25.2797C12.3002 26.2397 10.9778 27.6181 10.115 29.2601L8.55316 32.2493C8.46727 32.444 8.32408 32.6105 8.14114 32.7283C7.95819 32.8461 7.74344 32.91 7.52321 32.9123Z" fill="#F1841F"/>
<path d="M17.5398 49.9995C11.4054 49.9995 5.31625 44.8799 4.47871 44.1407C-1.51987 40.5755 0.121254 31.1949 0.460796 29.6188C-0.433332 23.9882 2.37355 21.1621 3.85622 20.0969C3.26348 18.4059 3.29552 16.5704 3.94695 14.8994C4.59837 13.2285 5.82938 11.8241 7.43273 10.9228C6.99132 7.74882 10.3075 5.62922 11.4393 5.00965C11.9981 3.87637 12.802 2.87045 13.7973 2.05889C14.7926 1.24733 15.9565 0.648762 17.2115 0.303049C22.4405 -1.03393 28.009 2.477 28.2467 2.62917C28.4019 2.7299 28.5286 2.86605 28.6155 3.02541C28.7024 3.18477 28.7468 3.36235 28.7447 3.54223V37.5971C28.7563 37.6692 28.7563 37.7425 28.7447 37.8145C27.3073 44.3907 24.5117 48.3473 20.4259 49.5865C19.4926 49.8698 18.5185 50.0092 17.5398 49.9995ZM19.7015 2.17265C19.0563 2.16809 18.4132 2.24484 17.7888 2.40091C16.784 2.69268 15.8581 3.19227 15.0759 3.86456C14.2938 4.53684 13.6745 5.3655 13.2615 6.29228C13.1547 6.50255 12.98 6.6741 12.7635 6.78142C12.7635 6.78142 8.92672 8.67275 9.77557 11.1293C9.87525 11.3881 9.86873 11.6736 9.75734 11.9279C9.64595 12.1822 9.43802 12.3864 9.17571 12.4989C8.67772 12.6946 4.33158 14.5968 6.27829 20.2273C6.36436 20.4752 6.35454 20.7447 6.2506 20.9862C6.14667 21.2278 5.9556 21.4253 5.71238 21.5425C5.55393 21.6186 1.75106 23.586 2.76968 29.4666C2.80379 29.6023 2.80379 29.7439 2.76968 29.8796C2.76968 29.9775 0.664522 39.3798 5.80293 42.3364L5.98402 42.4777C6.06324 42.5429 13.7595 49.3473 19.7807 47.5104C23.0064 46.5321 25.2813 43.1625 26.5716 37.4776V4.15094C24.4865 2.95736 22.1264 2.27774 19.7015 2.17265V2.17265Z" fill="#F1841F"/>
<path d="M15.6497 44.3582C14.4199 44.3578 13.2046 44.1022 12.0872 43.6088C10.9698 43.1154 9.97666 42.3958 9.17578 41.4994L4.29769 36.0646C4.20108 35.9561 4.12767 35.8304 4.08164 35.6946C4.03561 35.5589 4.01787 35.4158 4.02943 35.2735C4.04099 35.1312 4.08163 34.9924 4.14902 34.8652C4.21641 34.7379 4.30923 34.6247 4.42219 34.5319C4.53515 34.4391 4.66603 34.3686 4.80736 34.3244C4.9487 34.2802 5.09771 34.2632 5.2459 34.2743C5.39409 34.2854 5.53855 34.3244 5.67103 34.3891C5.80352 34.4539 5.92143 34.543 6.01804 34.6515L10.8961 40.0864C11.5895 40.8612 12.4768 41.4539 13.4744 41.8087C14.4721 42.1634 15.5473 42.2685 16.5989 42.1142C17.6506 41.9598 18.644 41.551 19.4858 40.9262C20.3275 40.3015 20.9899 39.4813 21.4106 38.5429L22.4292 36.2385C22.7666 35.4906 22.94 34.6839 22.9386 33.8689V10.3467C22.9386 10.0585 23.0578 9.78198 23.2701 9.57813C23.4823 9.37429 23.7702 9.25977 24.0704 9.25977C24.3705 9.25977 24.6584 9.37429 24.8707 9.57813C25.0829 9.78198 25.2022 10.0585 25.2022 10.3467V33.8689C25.2109 34.9901 24.9757 36.1008 24.5118 37.1298L23.4818 39.4342C22.8215 40.9011 21.7274 42.1496 20.3352 43.0249C18.9429 43.9002 17.3138 44.3638 15.6497 44.3582V44.3582Z" fill="#F1841F"/>
<path d="M13.171 13.5859C11.4789 13.5103 9.81489 13.1421 8.25895 12.4989C7.98129 12.3822 7.7633 12.1643 7.65293 11.8932C7.54255 11.6221 7.54884 11.3199 7.67041 11.0533C7.79198 10.7866 8.01888 10.5772 8.30118 10.4712C8.58347 10.3652 8.89806 10.3713 9.17572 10.488C10.7942 11.1511 13.6124 11.8141 14.4952 11.1185C14.9027 10.8033 14.8348 10.0315 14.7103 9.42281C14.6517 9.13452 14.7148 8.83571 14.8857 8.59212C15.0566 8.34852 15.3212 8.18009 15.6214 8.12387C15.9215 8.06766 16.2327 8.12826 16.4863 8.29236C16.74 8.45646 16.9153 8.7106 16.9739 8.99889C17.4266 11.1728 16.6683 12.2598 15.9666 12.8142C15.1563 13.3754 14.1679 13.6483 13.171 13.5859V13.5859Z" fill="#F1841F"/>
<path d="M12.0844 26.3143C11.7842 26.3143 11.4963 26.1998 11.2841 25.996C11.0718 25.7921 10.9526 25.5156 10.9526 25.2274C10.9668 24.974 10.9153 24.7212 10.8027 24.4916C10.6901 24.262 10.5199 24.0629 10.3074 23.9121C9.07376 23.0534 6.32347 23.5317 5.45198 23.7599C5.20206 23.7648 4.9575 23.69 4.75649 23.5473C4.55548 23.4045 4.40931 23.2019 4.34081 22.9711C4.27231 22.7402 4.28532 22.494 4.37782 22.271C4.47032 22.0479 4.63709 21.8606 4.85212 21.7382C5.30485 21.6186 9.32276 20.586 11.643 22.2164C12.1308 22.5657 12.5263 23.0201 12.7976 23.5431C13.0689 24.0661 13.2084 24.643 13.2049 25.2274C13.2049 25.5156 13.0856 25.7921 12.8734 25.996C12.6611 26.1998 12.3732 26.3143 12.0731 26.3143H12.0844Z" fill="#F1841F"/>
<path d="M27.6128 35.1841C27.3126 35.1841 27.0247 35.0696 26.8125 34.8657C26.6002 34.6619 26.481 34.3854 26.481 34.0971C26.481 33.8089 26.6002 33.5324 26.8125 33.3285C27.0247 33.1247 27.3126 33.0102 27.6128 33.0102C28.5753 33.047 29.5357 32.8967 30.4362 32.5683C31.3368 32.2399 32.159 31.7402 32.8536 31.0992C33.5482 30.4581 34.1007 29.689 34.4782 28.8378C34.8557 27.9867 35.0503 27.0711 35.0503 26.1459C35.0503 25.2208 34.8557 24.3052 34.4782 23.454C34.1007 22.6029 33.5482 21.8337 32.8536 21.1927C32.159 20.5516 31.3368 20.052 30.4362 19.7236C29.5357 19.3952 28.5753 19.2449 27.6128 19.2817C27.3126 19.2817 27.0247 19.1672 26.8125 18.9633C26.6002 18.7595 26.481 18.483 26.481 18.1947C26.481 17.9064 26.6002 17.6299 26.8125 17.4261C27.0247 17.2223 27.3126 17.1077 27.6128 17.1077C28.8761 17.0656 30.1353 17.2683 31.3154 17.7035C32.4954 18.1388 33.5721 18.7978 34.4813 19.6412C35.3905 20.4847 36.1136 21.4953 36.6075 22.6128C37.1013 23.7303 37.3558 24.9319 37.3558 26.1459C37.3558 27.3599 37.1013 28.5615 36.6075 29.6791C36.1136 30.7966 35.3905 31.8072 34.4813 32.6506C33.5721 33.4941 32.4954 34.153 31.3154 34.5883C30.1353 35.0236 28.8761 35.2262 27.6128 35.1841Z" fill="#F1841F"/>
<path d="M31.1667 47.6625H25.021C24.7208 47.6625 24.4329 47.5479 24.2207 47.3441C24.0084 47.1402 23.8892 46.8638 23.8892 46.5755V44.4015C23.8892 44.1133 24.0084 43.8368 24.2207 43.6329C24.4329 43.4291 24.7208 43.3146 25.021 43.3146C25.3211 43.3146 25.609 43.4291 25.8213 43.6329C26.0335 43.8368 26.1528 44.1133 26.1528 44.4015V45.4885H29.9896V41.6624C29.9832 41.4111 30.0677 41.1655 30.2286 40.9673C30.3896 40.7691 30.6171 40.6306 30.8724 40.5754C32.649 40.1952 34.3423 39.5183 35.875 38.5754C36.0921 38.44 36.3509 38.3802 36.6084 38.4059C36.8658 38.4316 37.1063 38.5413 37.2898 38.7167L40.1193 41.4341L43.5147 38.1732L40.6852 35.4557C40.5026 35.2796 40.3884 35.0486 40.3616 34.8014C40.3348 34.5541 40.3971 34.3055 40.538 34.097C41.5337 32.6454 42.2576 31.0379 42.6772 29.3469C42.7347 29.1017 42.8789 28.8833 43.0852 28.7287C43.2916 28.5741 43.5473 28.493 43.809 28.4991H47.7929V23.8251H43.775C43.5134 23.8313 43.2576 23.7501 43.0513 23.5956C42.8449 23.441 42.7007 23.2225 42.6432 22.9773C42.2474 21.271 41.5425 19.6448 40.5607 18.1729C40.4197 17.9644 40.3575 17.7158 40.3842 17.4685C40.411 17.2213 40.5252 16.9903 40.7078 16.8141L43.5373 14.0967L40.1419 10.8358L37.3124 13.5532C37.129 13.7286 36.8885 13.8383 36.631 13.864C36.3736 13.8897 36.1147 13.8299 35.8976 13.6945C34.3649 12.7516 32.6717 12.0746 30.895 11.6945C30.6397 11.6393 30.4122 11.5008 30.2513 11.3026C30.0903 11.1044 30.0058 10.8588 30.0122 10.6075V6.8031H27.6128C27.3126 6.8031 27.0248 6.68858 26.8125 6.48473C26.6002 6.28088 26.481 6.00441 26.481 5.71612C26.481 5.42784 26.6002 5.15137 26.8125 4.94752C27.0248 4.74367 27.3126 4.62915 27.6128 4.62915H31.1667C31.4669 4.62915 31.7547 4.74367 31.967 4.94752C32.1792 5.15137 32.2985 5.42784 32.2985 5.71612V9.78141C33.7109 10.1559 35.0685 10.7001 36.339 11.401L39.3383 8.52052C39.5504 8.31807 39.8372 8.20443 40.1363 8.20443C40.4353 8.20443 40.7221 8.31807 40.9342 8.52052L45.9481 13.3358C46.1589 13.5395 46.2772 13.815 46.2772 14.1021C46.2772 14.3893 46.1589 14.6648 45.9481 14.8684L42.9488 17.7489C43.6804 18.976 44.247 20.2872 44.6352 21.6512H48.8681C49.1683 21.6512 49.4562 21.7657 49.6685 21.9695C49.8807 22.1734 50 22.4499 50 22.7381V29.5535C50 29.8418 49.8807 30.1182 49.6685 30.3221C49.4562 30.5259 49.1683 30.6404 48.8681 30.6404H44.6578C44.2697 32.0044 43.703 33.3156 42.9714 34.5427L45.9707 37.4232C46.1815 37.6268 46.2998 37.9023 46.2998 38.1895C46.2998 38.4766 46.1815 38.7521 45.9707 38.9558L40.9568 43.7711C40.7448 43.9736 40.4579 44.0872 40.1589 44.0872C39.8599 44.0872 39.573 43.9736 39.361 43.7711L36.339 40.8906C35.0594 41.5921 33.6948 42.1397 32.2759 42.5211V46.5755C32.2759 46.86 32.1598 47.1333 31.9524 47.3365C31.745 47.5397 31.4629 47.6568 31.1667 47.6625V47.6625Z" fill="#F1841F"/>
</svg>
