<svg width="50" height="50" viewBox="0 0 50 50" fill="none" xmlns="http://www.w3.org/2000/svg">
<path d="M39.2993 24.8839C39.2993 17.0359 32.8848 10.6514 25 10.6514C17.1152 10.6514 10.7007 17.0359 10.7007 24.8839C10.7007 29.2206 12.6647 33.1035 15.7475 35.7156V40.4442L11.7883 44.3849C11.6301 44.5415 11.5418 44.7541 11.5418 44.9768V46.6512H13.2241V45.3234L17.1833 41.3827C17.3415 41.2261 17.4298 41.0135 17.4298 40.7908V36.9363C18.223 37.4311 19.0666 37.8497 19.9532 38.1837V42.1186L17.6762 44.3849C17.5181 44.5415 17.4298 44.7541 17.4298 44.9768V46.6512H19.112V45.3234L21.389 43.0571C21.5471 42.9005 21.6355 42.6879 21.6355 42.4652V38.7019C22.4522 38.8987 23.295 39.0234 24.1589 39.0737V46.6512H25.8411V39.0737C26.705 39.0234 27.5478 38.8987 28.3645 38.7019V42.4652C28.3645 42.6879 28.4529 42.9005 28.611 43.0571L30.8879 45.3234V46.6512H32.5702V44.9768C32.5702 44.7541 32.4819 44.5415 32.3238 44.3849L30.0468 42.1186V38.1837C30.9334 37.8488 31.777 37.4311 32.5702 36.9363V40.7908C32.5702 41.0135 32.6585 41.2261 32.8167 41.3827L36.7759 45.3234V46.6512H38.4582V44.9768C38.4582 44.7541 38.3699 44.5415 38.2117 44.3849L34.2525 40.4442V35.7156C37.3353 33.1035 39.2993 29.2206 39.2993 24.8839ZM25 12.3258C26.4955 12.3258 28.0979 14.351 29.0862 17.6839C26.3929 18.2231 23.6071 18.2231 20.9138 17.6839C21.9021 14.351 23.5045 12.3258 25 12.3258ZM25 19.7677C26.5056 19.7677 28.0096 19.6095 29.4891 19.3089C29.7886 20.728 29.9804 22.3187 30.0283 24.0467H19.9717C20.0196 22.3187 20.2114 20.7271 20.5109 19.3089C21.9904 19.6095 23.4944 19.7677 25 19.7677ZM31.7097 25.7211H37.5741C37.4076 28.2201 36.5059 30.5166 35.0793 32.4062C33.8058 31.7598 32.4811 31.2441 31.1218 30.859C31.4582 29.2876 31.661 27.5571 31.7097 25.7211ZM29.4891 30.4597C26.5317 29.8585 23.4691 29.8585 20.5117 30.4597C20.2122 29.0406 20.0205 27.4499 19.9725 25.7211H30.0283C29.9804 27.4499 29.7886 29.0406 29.4891 30.4597ZM31.7097 24.0467C31.661 22.2107 31.4582 20.4802 31.1218 18.9096C32.4811 18.5244 33.8058 18.0087 35.0793 17.3624C36.5059 19.252 37.4076 21.5484 37.5741 24.0475H31.7097V24.0467ZM18.2903 24.0467H12.4259C12.5924 21.5476 13.4941 19.2511 14.9207 17.3616C16.1941 18.0079 17.5189 18.5244 18.8782 18.9087C18.5418 20.481 18.339 22.2107 18.2903 24.0467ZM18.2903 25.7211C18.339 27.5571 18.5418 29.2876 18.8782 30.859C17.5189 31.2433 16.1941 31.759 14.9207 32.4062C13.4941 30.5166 12.5924 28.2201 12.4259 25.7211H18.2903ZM19.2878 32.4823C19.8127 34.2698 20.5193 35.7784 21.3596 36.9045C19.3232 36.2925 17.5021 35.1832 16.0419 33.7155C17.0908 33.2082 18.1775 32.7996 19.2878 32.4823ZM20.9138 32.0838C23.6071 31.5447 26.3929 31.5447 29.0862 32.0838C28.0979 35.4167 26.4955 37.4419 25 37.4419C23.5045 37.4419 21.9021 35.4167 20.9138 32.0838ZM30.7121 32.4823C31.8224 32.7996 32.9092 33.2082 33.9589 33.7147C32.4987 35.1823 30.6777 36.2916 28.6413 36.9036C29.4807 35.7784 30.1873 34.2698 30.7121 32.4823ZM33.9589 16.053C32.9092 16.5604 31.8224 16.9681 30.7121 17.2854C30.1873 15.498 29.4807 13.9893 28.6404 12.8633C30.6777 13.4761 32.4979 14.5854 33.9589 16.053ZM21.3596 12.8641C20.5193 13.9893 19.8135 15.498 19.2878 17.2862C18.1775 16.9689 17.0908 16.5604 16.0411 16.0539C17.5021 14.5854 19.3223 13.4761 21.3596 12.8641Z" fill="#F1841F"/>
<path d="M38.4583 48.3256H36.776V50H38.4583V48.3256Z" fill="#F1841F"/>
<path d="M32.5702 48.3256H30.8879V50H32.5702V48.3256Z" fill="#F1841F"/>
<path d="M13.224 48.3256H11.5417V50H13.224V48.3256Z" fill="#F1841F"/>
<path d="M19.1121 48.3256H17.4298V50H19.1121V48.3256Z" fill="#F1841F"/>
<path d="M25.8411 48.3256H24.1588V50H25.8411V48.3256Z" fill="#F1841F"/>
<path d="M22.0266 8.38504L23.216 9.56885C24.2001 8.58932 25.7999 8.58932 26.7841 9.56885L27.9734 8.38504C26.3341 6.75333 23.666 6.75333 22.0266 8.38504Z" fill="#F1841F"/>
<path d="M30.6195 5.87338C27.5208 2.78911 22.479 2.78911 19.3811 5.87338L20.5705 7.05719C23.0131 4.62594 26.9875 4.62594 29.4302 7.05719L30.6195 5.87338Z" fill="#F1841F"/>
<path d="M33.1649 3.3618C28.6631 -1.1206 21.3368 -1.1206 16.8351 3.3618L18.0245 4.54561C21.8701 0.717903 28.1299 0.717903 31.9755 4.54561L33.1649 3.3618Z" fill="#F1841F"/>
<path d="M8.42362 21.9243C6.78425 23.556 6.78425 26.2116 8.42362 27.8434L9.61299 26.6596C8.62886 25.68 8.62886 24.0877 9.61299 23.1081L8.42362 21.9243Z" fill="#F1841F"/>
<path d="M5.90035 30.4772L7.08972 29.2934C4.64706 26.8621 4.64706 22.9063 7.08972 20.4751L5.90035 19.2913C2.80161 22.3747 2.80161 27.3929 5.90035 30.4772Z" fill="#F1841F"/>
<path d="M3.37695 33.0106L4.56632 31.8268C0.720643 27.9982 0.720643 21.7694 4.56632 17.9409L3.37695 16.7571C-1.12565 21.2386 -1.12565 28.529 3.37695 33.0106Z" fill="#F1841F"/>
<path d="M41.5762 27.8434C43.2156 26.2116 43.2156 23.556 41.5762 21.9243L40.3868 23.1081C41.371 24.0877 41.371 25.68 40.3868 26.6596L41.5762 27.8434Z" fill="#F1841F"/>
<path d="M42.9104 20.4742C45.3531 22.9055 45.3531 26.8613 42.9104 29.2925L44.0998 30.4763C47.1985 27.392 47.1985 22.3738 44.0998 19.2904L42.9104 20.4742Z" fill="#F1841F"/>
<path d="M45.4337 31.8268L46.6231 33.0106C51.1257 28.529 51.1257 21.2378 46.6231 16.7571L45.4337 17.9409C49.2794 21.7694 49.2794 27.9982 45.4337 31.8268Z" fill="#F1841F"/>
</svg>
