<svg width="50" height="50" viewBox="0 0 50 50" fill="none" xmlns="http://www.w3.org/2000/svg">
<path d="M8.18351 31.3897C7.97172 31.4384 7.7873 31.567 7.66929 31.7484C7.55129 31.9297 7.50897 32.1496 7.55129 32.3614C8.03544 34.7777 9.22978 36.9971 10.9833 38.7392C12.7369 40.4813 14.971 41.6678 17.4032 42.1488C17.6164 42.1912 17.8379 42.1492 18.0205 42.032C18.2031 41.9147 18.3326 41.7313 18.3812 41.5207C19.1246 38.3265 18.4077 35.5356 16.3079 33.4494C14.208 31.3631 11.399 30.6512 8.18351 31.3897ZM16.9074 40.3236C15.1154 39.8221 13.483 38.8719 12.1666 37.5641C10.8501 36.2562 9.89366 34.6345 9.38885 32.8542C11.682 32.5259 13.6093 33.1198 15.1246 34.6252C16.6399 36.1306 17.238 38.0447 16.9074 40.3236Z" fill="#F1841F"/>
<path d="M28.7322 21.107C26.9803 19.3624 24.7454 18.1754 22.312 17.6973C22.0988 17.6553 21.8775 17.6973 21.6949 17.8145C21.5124 17.9318 21.3829 18.115 21.3339 18.3254C20.5906 21.5196 21.3075 24.31 23.4073 26.3968C24.9693 27.9484 26.9235 28.7399 29.1454 28.7399C29.9492 28.7358 30.7498 28.6408 31.532 28.4567C31.7438 28.4081 31.9282 28.2794 32.0462 28.0981C32.1642 27.9167 32.2065 27.6968 32.1642 27.485C31.683 25.0676 30.4882 22.8473 28.7322 21.107V21.107ZM24.5906 25.2215C23.0752 23.716 22.4774 21.802 22.808 19.5232C24.5999 20.0247 26.2323 20.9748 27.5488 22.2826C28.8653 23.5904 29.8218 25.212 30.3267 26.9922C28.0331 27.3204 26.106 26.7268 24.5907 25.2212L24.5906 25.2215Z" fill="#F1841F"/>
<path d="M31.532 31.3898C28.3167 30.6512 25.5074 31.3637 23.4074 33.4498C21.3073 35.5359 20.5906 38.3269 21.334 41.5212C21.3827 41.7317 21.5121 41.9151 21.6947 42.0324C21.8773 42.1497 22.0988 42.1916 22.312 42.1492C24.7442 41.6683 26.9783 40.4817 28.7319 38.7396C30.4854 36.9976 31.6798 34.7781 32.1639 32.3618C32.2064 32.15 32.1641 31.9301 32.0462 31.7487C31.9282 31.5672 31.7438 31.4385 31.532 31.3898ZM27.5488 37.564C26.2339 38.8738 24.601 39.8243 22.8081 40.3237C22.4775 38.045 23.0753 36.1309 24.5907 34.6255C25.836 33.3884 27.3589 32.7667 29.1352 32.7667C29.5339 32.7677 29.932 32.7971 30.3265 32.8545C29.8239 34.6356 28.8671 36.2577 27.5488 37.564V37.564Z" fill="#F1841F"/>
<path d="M49.5076 42.3644L48.2965 41.8214C48.3252 41.2049 48.2631 40.5875 48.112 39.9888L49.191 39.2183C49.371 39.0896 49.4923 38.8952 49.5281 38.6778C49.564 38.4603 49.5114 38.2376 49.3821 38.0586L47.4285 35.359C47.3644 35.2704 47.2833 35.1951 47.1899 35.1376C47.0965 35.0801 46.9926 35.0415 46.8842 35.0238C46.7757 35.0062 46.6649 35.01 46.5579 35.035C46.4509 35.0599 46.3499 35.1056 46.2607 35.1693L45.1801 35.9411C44.6553 35.6116 44.0872 35.3558 43.492 35.1809L43.3599 33.8687C43.3375 33.6494 43.2286 33.4479 43.0569 33.3084C42.8852 33.1688 42.6649 33.1026 42.4441 33.1243L39.7047 33.3964C39.7317 33.228 39.706 33.0554 39.6309 32.9021C39.5558 32.7487 39.4351 32.622 39.285 32.5391L37.3587 31.4768C37.451 30.4433 37.451 29.4037 37.3587 28.3702L39.285 27.3078C39.4482 27.2178 39.5764 27.0762 39.6493 26.9055C39.7221 26.7349 39.7355 26.5449 39.6872 26.3658L38.8209 23.1544C38.7728 22.9752 38.6657 22.8171 38.5167 22.7055C38.3677 22.5938 38.1853 22.535 37.9986 22.5383L35.7993 22.5751C35.3592 21.6334 34.835 20.7328 34.2331 19.8841L35.3659 18.0083C35.462 17.8494 35.5018 17.6631 35.4791 17.4791C35.4563 17.2951 35.3723 17.124 35.2404 16.9929L32.874 14.6419C32.742 14.5109 32.5697 14.4274 32.3845 14.4049C32.1993 14.3823 32.0119 14.4218 31.8519 14.5172L29.9637 15.6427C29.1094 15.0447 28.2029 14.5239 27.255 14.0867L27.2919 11.9016C27.295 11.7163 27.2357 11.5352 27.1233 11.3872C27.011 11.2392 26.8521 11.1327 26.6718 11.0848L23.4386 10.2238C23.2583 10.1758 23.0672 10.1891 22.8954 10.2615C22.7236 10.3339 22.5812 10.4612 22.4906 10.6233L21.4211 12.537C20.3808 12.4453 19.3344 12.4453 18.294 12.537L17.792 11.6384L16.9375 8.24249C16.9822 8.16145 17.0231 8.07802 17.0611 7.99313L24.7033 6.09508C25.2104 6.42992 25.8 6.62063 26.4083 6.64658C27.0166 6.67253 27.6205 6.53273 28.1546 6.24231L36.3885 8.28717C36.495 8.31378 36.6059 8.31923 36.7146 8.30322C36.8233 8.28721 36.9278 8.25005 37.022 8.19387C37.1162 8.13769 37.1984 8.06359 37.2638 7.97582C37.3291 7.88805 37.3764 7.78832 37.4029 7.68236L37.5937 6.92389L38.9236 7.2544L38.2898 9.77284C38.236 9.98668 38.27 10.213 38.3841 10.402C38.4983 10.591 38.6833 10.7272 38.8986 10.7807L42.2453 11.6119L42.6511 9.99913L40.1161 9.3695L41.3835 4.33262L43.9186 4.96215L44.3243 3.34941L40.9776 2.51821C40.7624 2.46479 40.5346 2.49849 40.3443 2.61191C40.1541 2.72533 40.017 2.90918 39.9632 3.12301L39.3293 5.64176L37.9997 5.31136L38.2402 4.35756C38.294 4.14371 38.2601 3.9174 38.1459 3.7284C38.0317 3.5394 37.8467 3.40319 37.6314 3.34972L29.1602 1.24574C28.8662 0.88065 28.4979 0.581379 28.0794 0.367534C27.6609 0.153688 27.2016 0.0300928 26.7317 0.00484381C26.2617 -0.0204052 25.7917 0.0532618 25.3524 0.221019C24.9131 0.388777 24.5145 0.64684 24.1826 0.978305L14.5508 3.3704C13.8206 3.24904 13.0705 3.3718 12.4181 3.71943C11.7657 4.06706 11.2478 4.61992 10.9456 5.29136C10.6434 5.9628 10.574 6.71488 10.7482 7.42972C10.9224 8.14457 11.3305 8.78178 11.9084 9.24149L12.4918 11.56C12.4453 11.6677 12.4223 11.784 12.4243 11.9012L12.4612 14.0863C11.5134 14.5235 10.6068 15.0442 9.7525 15.6423L7.86422 14.5168C7.70426 14.4214 7.51677 14.3818 7.33158 14.4044C7.14638 14.427 6.9741 14.5105 6.84212 14.6415L4.47568 16.9928C4.34378 17.1239 4.25979 17.295 4.23705 17.479C4.21431 17.663 4.25413 17.8493 4.35018 18.0082L5.48304 19.884C4.88107 20.7327 4.35689 21.6333 3.91678 22.575L1.71746 22.5382H1.70293C1.51876 22.5383 1.33976 22.5987 1.19366 22.7101C1.04757 22.8215 0.942558 22.9776 0.894906 23.1544L0.0285258 26.3658C-0.0197876 26.5449 -0.00645212 26.7349 0.0664117 26.9055C0.139276 27.0762 0.267485 27.2178 0.430654 27.3078L2.357 28.3702C2.26473 29.4037 2.26473 30.4433 2.357 31.4768L0.430759 32.5387C0.26759 32.6287 0.13938 32.7703 0.0665163 32.941C-0.00634759 33.1116 -0.0196831 33.3016 0.0286303 33.4807L0.894906 36.6921C0.942558 36.8689 1.04757 37.025 1.19366 37.1364C1.33976 37.2478 1.51876 37.3082 1.70293 37.3083H1.71715L3.91646 37.2715C4.35658 38.2132 4.88076 39.1138 5.48272 39.9625L4.34986 41.8383C4.25382 41.9972 4.214 42.1835 4.23674 42.3675C4.25948 42.5515 4.34347 42.7226 4.47536 42.8537L6.8418 45.2047C6.97378 45.3357 7.14607 45.4192 7.33126 45.4418C7.51646 45.4643 7.70394 45.4248 7.86391 45.3294L9.75208 44.2039C10.6064 44.8019 11.5129 45.3227 12.4608 45.7599L12.4239 47.945C12.4208 48.1303 12.4801 48.3114 12.5925 48.4594C12.7048 48.6074 12.8637 48.7139 13.044 48.7618L16.2766 49.6223C16.4568 49.6703 16.648 49.657 16.8198 49.5846C16.9915 49.5122 17.134 49.3849 17.2246 49.2228L18.294 47.3091C19.3344 47.4008 20.3808 47.4008 21.4211 47.3091L22.4906 49.2228C22.581 49.385 22.7235 49.5125 22.8953 49.5849C23.0671 49.6573 23.2583 49.6705 23.4386 49.6223L26.6712 48.7618C26.8514 48.7139 27.0104 48.6074 27.1227 48.4594C27.2351 48.3114 27.2944 48.1303 27.2913 47.945L27.2543 45.7599C28.2022 45.3227 29.1088 44.8019 29.9631 44.2039L31.8513 45.3294C32.0112 45.4248 32.1987 45.4643 32.3839 45.4418C32.5691 45.4192 32.7414 45.3357 32.8734 45.2047L33.7093 44.3742C33.7037 44.3968 33.6983 44.4194 33.6946 44.4426C33.6768 44.5503 33.6806 44.6605 33.7058 44.7667C33.7309 44.873 33.7768 44.9733 33.841 45.0619L35.7945 47.7616C35.8587 47.8502 35.9397 47.9254 36.0331 47.9829C36.1265 48.0404 36.2304 48.0791 36.3389 48.0967C36.4473 48.1143 36.5582 48.1106 36.6651 48.0856C36.7721 48.0607 36.8731 48.015 36.9623 47.9513L38.043 47.1795C38.5678 47.5089 39.1358 47.7647 39.7311 47.9397L39.8632 49.2519C39.8839 49.4568 39.9804 49.6467 40.134 49.7849C40.2876 49.9231 40.4874 49.9997 40.6946 50C40.7225 50 40.7506 49.9986 40.7789 49.9958L44.109 49.665C44.2183 49.6542 44.3244 49.622 44.4213 49.5704C44.5181 49.5188 44.6037 49.4488 44.6733 49.3643C44.7429 49.2798 44.795 49.1825 44.8268 49.078C44.8585 48.9735 44.8692 48.8638 44.8583 48.7552L44.7262 47.443C45.2747 47.1544 45.7805 46.792 46.2293 46.3659L47.4424 46.9098C47.6447 47.0005 47.8749 47.0077 48.0825 46.9297C48.2901 46.8518 48.458 46.6951 48.5493 46.4942L49.9259 43.4639C50.0172 43.263 50.0244 43.0343 49.946 42.8281C49.8675 42.6219 49.7098 42.4551 49.5076 42.3644V42.3644ZM36.4136 4.76079L35.9826 6.47297L29.5149 4.86667C29.7669 4.3913 29.8984 3.86204 29.8979 3.32479C29.8979 3.26317 29.8959 3.20208 29.8926 3.1413L36.4136 4.76079ZM26.5512 1.66238C26.8822 1.66238 27.2057 1.75988 27.4809 1.94255C27.7561 2.12522 27.9705 2.38485 28.0972 2.68861C28.2238 2.99238 28.257 3.32663 28.1924 3.64911C28.1279 3.97158 27.9685 4.26779 27.7345 4.50028C27.5004 4.73278 27.2023 4.8911 26.8777 4.95525C26.5531 5.01939 26.2166 4.98647 25.9109 4.86065C25.6051 4.73483 25.3437 4.52175 25.1599 4.24837C24.976 3.97499 24.8779 3.65358 24.8779 3.32479C24.8784 2.88405 25.0549 2.46152 25.3686 2.14987C25.6823 1.83822 26.1076 1.66291 26.5512 1.66238V1.66238ZM23.4973 4.68121L17.3184 6.21571C17.2389 5.61382 16.9942 5.04525 16.6113 4.57221L23.2291 2.92872C23.213 3.06014 23.2048 3.1924 23.2045 3.32479C23.2044 3.79242 23.3042 4.25474 23.4973 4.68121V4.68121ZM14.001 4.98719C14.332 4.98719 14.6555 5.08469 14.9307 5.26736C15.2059 5.45002 15.4204 5.70966 15.547 6.01342C15.6737 6.31719 15.7068 6.65144 15.6423 6.97391C15.5777 7.29639 15.4183 7.5926 15.1843 7.82509C14.9503 8.05758 14.6521 8.21591 14.3275 8.28006C14.0029 8.3442 13.6664 8.31128 13.3607 8.18546C13.0549 8.05963 12.7936 7.84656 12.6097 7.57318C12.4258 7.2998 12.3277 6.97839 12.3277 6.6496C12.3282 6.20886 12.5047 5.78632 12.8184 5.47468C13.1321 5.16303 13.5574 4.98771 14.001 4.98719V4.98719ZM14.001 9.9744C14.5418 9.97485 15.0745 9.84424 15.553 9.59392L19.8323 26.5991C19.2288 26.6027 18.6378 26.7694 18.1224 27.0813L13.8162 9.9689C13.8774 9.97243 13.939 9.9744 14.001 9.9744ZM15.7501 24.5081C15.5584 24.7598 15.3495 24.998 15.1248 25.2212C13.6094 26.7268 11.6826 27.3208 9.38907 26.9922C9.78583 25.5943 10.462 24.2901 11.3773 23.1574C12.2926 22.0248 13.4282 21.087 14.7163 20.4L15.7501 24.5081ZM19.8578 28.2608C20.1888 28.2608 20.5123 28.3583 20.7875 28.541C21.0626 28.7237 21.2771 28.9833 21.4038 29.2871C21.5304 29.5908 21.5636 29.9251 21.499 30.2476C21.4344 30.57 21.2751 30.8663 21.041 31.0988C20.807 31.3312 20.5088 31.4896 20.1842 31.5537C19.8596 31.6179 19.5232 31.5849 19.2174 31.4591C18.9117 31.3333 18.6503 31.1202 18.4664 30.8468C18.2826 30.5735 18.1844 30.252 18.1844 29.9233C18.185 29.4825 18.3614 29.06 18.6751 28.7483C18.9888 28.4367 19.4142 28.2614 19.8578 28.2608ZM32.1521 43.5703L30.3489 42.4952C30.2059 42.41 30.0406 42.3691 29.8741 42.3779C29.7077 42.3867 29.5476 42.4447 29.4145 42.5444C28.3861 43.3151 27.2667 43.9581 26.0812 44.4589C25.9279 44.5236 25.7975 44.6324 25.7067 44.7712C25.616 44.9101 25.569 45.0726 25.5719 45.2381L25.6072 47.3244L23.6365 47.8489L22.6156 46.022C22.5348 45.8774 22.4125 45.7601 22.2643 45.685C22.116 45.6099 21.9486 45.5804 21.7834 45.6002C20.5043 45.7543 19.2112 45.7543 17.9322 45.6002C17.767 45.5802 17.5995 45.6097 17.4512 45.6848C17.303 45.76 17.1807 45.8774 17.1 46.022L16.079 47.8489L14.1084 47.3244L14.1437 45.2381C14.1466 45.0726 14.0996 44.9101 14.0089 44.7712C13.9181 44.6324 13.7877 44.5236 13.6344 44.4589C12.4489 43.958 11.3295 43.3151 10.301 42.5443C10.168 42.4446 10.0079 42.3866 9.84145 42.3778C9.67497 42.369 9.50965 42.4099 9.36669 42.4951L7.56344 43.5703L6.1208 42.1371L7.20304 40.3456C7.28878 40.2036 7.32987 40.0394 7.32104 39.874C7.31221 39.7086 7.25385 39.5496 7.15347 39.4174C6.37765 38.3958 5.73049 37.2837 5.22639 36.1059C5.16057 35.9541 5.05095 35.8249 4.91135 35.7349C4.77175 35.6448 4.60844 35.5979 4.442 35.5999L2.34204 35.6351L1.8141 33.6773L3.65301 32.6631C3.79851 32.5828 3.9166 32.4613 3.9922 32.314C4.0678 32.1667 4.09747 32.0004 4.07742 31.8363C3.92253 30.5656 3.92253 29.2809 4.07742 28.0102C4.09747 27.8461 4.0678 27.6798 3.9922 27.5325C3.9166 27.3852 3.79851 27.2637 3.65301 27.1834L1.8141 26.1692L2.34204 24.2114L4.442 24.2466H4.45612C4.6203 24.2466 4.78085 24.1986 4.91778 24.1086C5.05471 24.0186 5.16196 23.8906 5.22618 23.7405C5.73028 22.5627 6.37745 21.4506 7.15326 20.4289C7.25366 20.2968 7.31203 20.1378 7.3209 19.9725C7.32977 19.8071 7.28873 19.6429 7.20304 19.5009L6.1208 17.7094L7.56344 16.2762L9.36669 17.3513C9.50965 17.4365 9.67497 17.4774 9.84145 17.4686C10.0079 17.4598 10.168 17.4018 10.301 17.3021C11.2826 16.5672 12.347 15.9485 13.4728 15.4587L14.2995 18.7437C12.5759 19.5899 11.0711 20.8183 9.90103 22.3339C8.731 23.8495 7.92708 25.6118 7.55131 27.485C7.50898 27.6968 7.5513 27.9167 7.66931 28.0981C7.78731 28.2794 7.97173 28.4081 8.18352 28.4567C8.96567 28.6408 9.76636 28.7358 10.5701 28.7399C12.7607 28.7399 14.6908 27.9688 16.2414 26.46L16.783 28.612C16.5314 29.1934 16.4521 29.834 16.5543 30.4586C16.6566 31.0832 16.9361 31.6659 17.3601 32.1382C17.7841 32.6104 18.3349 32.9527 18.9479 33.1247C19.5609 33.2967 20.2106 33.2914 20.8206 33.1093C21.4307 32.9272 21.9757 32.5759 22.3918 32.0968C22.8079 31.6176 23.0776 31.0304 23.1694 30.4042C23.2612 29.778 23.1713 29.1388 22.91 28.5616C22.6488 27.9845 22.2273 27.4934 21.6948 27.146L18.4354 14.1939C19.5502 14.0949 20.6724 14.1123 21.7835 14.2458C21.9487 14.2657 22.1161 14.2362 22.2644 14.1611C22.4126 14.086 22.5349 13.9687 22.6157 13.8241L23.6366 11.9972L25.6073 12.5217L25.572 14.6079C25.5691 14.7734 25.6161 14.936 25.7068 15.0749C25.7976 15.2137 25.928 15.3224 26.0813 15.3872C27.2668 15.8881 28.3862 16.531 29.4146 17.3018C29.5477 17.4015 29.7078 17.4595 29.8742 17.4683C30.0407 17.477 30.206 17.4362 30.349 17.351L32.1522 16.2761L33.5949 17.7093L32.5125 19.5009C32.4268 19.6429 32.3857 19.8071 32.3945 19.9725C32.4034 20.1379 32.4617 20.2969 32.5621 20.4291C33.3379 21.4507 33.9851 22.5628 34.4892 23.7406C34.5547 23.8927 34.6642 24.022 34.8039 24.1121C34.9436 24.2022 35.1071 24.249 35.2736 24.2466L37.3735 24.2114L37.9015 26.1692L36.0626 27.1834C35.9171 27.2637 35.799 27.3852 35.7234 27.5325C35.6478 27.6798 35.6181 27.8461 35.6382 28.0102C35.7931 29.2809 35.7931 30.5656 35.6382 31.8363C35.6181 32.0004 35.6478 32.1667 35.7234 32.314C35.799 32.4613 35.9171 32.5828 36.0626 32.6631L37.9015 33.6773L37.3735 35.6351L35.2736 35.5999H35.2595C35.0953 35.5999 34.9347 35.6479 34.7978 35.7379C34.6609 35.8279 34.5536 35.9559 34.4894 36.106C33.9853 37.2838 33.3381 38.3959 32.5623 39.4176C32.4619 39.5498 32.4036 39.7087 32.3948 39.8741C32.3859 40.0395 32.427 40.2037 32.5128 40.3457L33.5948 42.1372L32.1521 43.5703ZM34.5759 43.5134L35.0828 43.0098C35.0921 43.0503 35.1008 43.0908 35.111 43.1314L34.5759 43.5134ZM47.3682 45.053L46.3778 44.6089C46.2135 44.5353 46.0298 44.5163 45.8538 44.5548C45.6779 44.5933 45.5191 44.6871 45.4011 44.8224C44.8877 45.4121 44.2426 45.8743 43.5174 46.1722C43.3506 46.2402 43.2104 46.3598 43.1175 46.5133C43.0247 46.6668 42.9843 46.846 43.0023 47.0242L43.1099 48.0944L41.4449 48.2598L41.3372 47.1896C41.3193 47.0115 41.2439 46.8438 41.1223 46.7117C41.0008 46.5795 40.8395 46.4898 40.6625 46.4561C39.8922 46.3067 39.1678 45.9805 38.547 45.5035C38.4044 45.3941 38.2301 45.3333 38.0499 45.3303C37.8698 45.3272 37.6934 45.382 37.5471 45.4865L36.6649 46.1165L35.6881 44.7666L36.5699 44.137C36.7161 44.0326 36.8245 43.8841 36.879 43.7136C36.9335 43.5432 36.9312 43.3598 36.8724 43.1907C36.6091 42.4552 36.5297 41.6672 36.6411 40.8945C36.6651 40.7172 36.6308 40.537 36.5434 40.3806C36.456 40.2242 36.3202 40.1 36.1561 40.0264L35.1664 39.5828L35.8547 38.0675L36.8451 38.5115C37.0093 38.5852 37.1931 38.6041 37.369 38.5657C37.545 38.5272 37.7037 38.4333 37.8217 38.298C38.3351 37.7084 38.9802 37.2462 39.7055 36.9483C39.8722 36.8803 40.0125 36.7607 40.1053 36.6072C40.1981 36.4537 40.2385 36.2745 40.2205 36.0963L40.1129 35.0261L41.7779 34.8607L41.8856 35.9309C41.9036 36.109 41.9789 36.2766 42.1005 36.4088C42.2221 36.541 42.3833 36.6306 42.5603 36.6644C43.3306 36.8138 44.055 37.1399 44.6759 37.6169C44.8184 37.7263 44.9928 37.7871 45.1729 37.7901C45.3531 37.7932 45.5294 37.7385 45.6757 37.634L46.558 37.0039L47.5348 38.3538L46.6529 38.9835C46.5067 39.0879 46.3983 39.2363 46.3438 39.4068C46.2894 39.5773 46.2917 39.7607 46.3505 39.9298C46.6137 40.6652 46.6931 41.4533 46.5817 42.226C46.5578 42.4033 46.592 42.5835 46.6794 42.7399C46.7668 42.8963 46.9027 43.0205 47.0668 43.0941L48.0565 43.5377L47.3682 45.053Z" fill="#F1841F"/>
<path d="M41.2784 38.2517C40.4242 38.3366 39.6355 38.7444 39.0753 39.3907C38.5152 40.0371 38.2265 40.8725 38.269 41.7243C38.3114 42.5762 38.6818 43.3792 39.3034 43.9675C39.925 44.5557 40.7504 44.8841 41.6089 44.8848C41.7198 44.8848 41.8316 44.8792 41.9444 44.8682C42.3829 44.8262 42.8087 44.6986 43.1974 44.4927C43.5861 44.2869 43.9301 44.0069 44.2097 43.6687C44.4892 43.3305 44.6988 42.9408 44.8264 42.5219C44.954 42.1031 44.9971 41.6633 44.9533 41.2279C44.9095 40.7924 44.7796 40.3699 44.571 39.9844C44.3624 39.599 44.0793 39.2582 43.7379 38.9817C43.3965 38.7052 43.0035 38.4984 42.5814 38.3731C42.1594 38.2478 41.7166 38.2065 41.2784 38.2516V38.2517ZM42.9066 42.6127C42.6614 42.9104 42.32 43.1144 41.9404 43.19C41.5608 43.2656 41.1666 43.2081 40.8249 43.0273C40.4832 42.8465 40.2151 42.5536 40.0664 42.1985C39.9178 41.8434 39.8976 41.4481 40.0094 41.0799C40.1212 40.7117 40.3581 40.3933 40.6797 40.1792C41.0012 39.965 41.3876 39.8683 41.7729 39.9054C42.1583 39.9425 42.5187 40.1112 42.7929 40.3827C43.0671 40.6543 43.238 41.0119 43.2765 41.3946C43.2989 41.6118 43.2778 41.8313 43.2143 42.0404C43.1508 42.2495 43.0462 42.444 42.9066 42.6127V42.6127Z" fill="#F1841F"/>
</svg>
